?xml version="1.0" encoding="UTF-8"?>
<svg width="114px" height="36px" viewBox="0 0 114 36" version="1.1" xmlns="http://www.w3.org/2000/svg" xmlns:xlink="http://www.w3.org/1999/xlink">
    <!-- Generator: Sketch 60 (88103) - https://sketch.com -->
    <title>横版logo</title>
    <desc>Created with Sketch.</desc>
    <defs>
        <linearGradient x1="53.9965497%" y1="11.1887764%" x2="32.2481234%" y2="83.9606701%" id="linearGradient-1">
            <stop stop-color="#EB6100" offset="0%"></stop>
            <stop stop-color="#F29344" offset="19%"></stop>
            <stop stop-color="#EE7815" offset="66.5%"></stop>
            <stop stop-color="#EB6100" offset="100%"></stop>
        </linearGradient>
        <linearGradient x1="0.00987654149%" y1="49.9914593%" x2="100.005333%" y2="49.9914593%" id="linearGradient-2">
            <stop stop-color="#676763" offset="0%"></stop>
            <stop stop-color="#CACAC7" offset="19%"></stop>
            <stop stop-color="#44433F" offset="100%"></stop>
        </linearGradient>
        <linearGradient x1="65.0943867%" y1="74.0871667%" x2="39.729853%" y2="6.83772739%" id="linearGradient-3">
            <stop stop-color="#22AC38" offset="0%"></stop>
            <stop stop-color="#9DC93A" offset="19%"></stop>
            <stop stop-color="#56B547" offset="70%"></stop>
            <stop stop-color="#009944" offset="100%"></stop>
        </linearGradient>
    </defs>
    <g id="页面-1" stroke="none" stroke-width="1" fill="none" fill-rule="evenodd">
        <g id="编组-3" fill="#FFFFFF" fill-rule="nonzero">
            <g id="单色黑logo">
                <path d="M60.1375137,21.6113784 L47.9323607,21.6113784 C47.5306955,21.6113784 47.2050816,21.2829667 47.2050816,20.8778503 C47.2050816,20.4727339 47.5306955,20.1443222 47.9323607,20.1443222 L60.1375137,20.1443222 C60.5391789,20.1443222 60.8647928,20.4727339 60.8647928,20.8778503 C60.8647928,21.2829667 60.5391789,21.6113784 60.1375137,21.6113784 L60.1375137,21.6113784 Z" id="Shape"></path>
                <path d="M76.160882,22.3037061 L66.8079766,22.3037061 C66.4063115,22.3037061 66.0806975,21.9752944 66.0806975,21.570178 C66.0806975,21.1650616 66.4063115,20.8366499 66.8079766,20.8366499 L76.160882,20.8366499 C76.5625472,20.8366499 76.8881611,21.1650616 76.8881611,21.570178 C76.8881611,21.9752944 76.5625472,22.3037061 76.160882,22.3037061 L76.160882,22.3037061 Z" id="Shape"></path>
                <path d="M76.160882,24.5204473 L66.8079766,24.5204473 C66.5425337,24.5293357 66.2933943,24.3915796 66.1580634,24.1610921 C66.0227325,23.9306047 66.0227325,23.6440416 66.1580634,23.4135542 C66.2933943,23.1830667 66.5425337,23.0453106 66.8079766,23.054199 L76.160882,23.054199 C76.5529373,23.067327 76.8640288,23.3916814 76.8640288,23.7873231 C76.8640288,24.1829649 76.5529373,24.5073193 76.160882,24.5204473 Z" id="Shape"></path>
                <path d="M107.825557,23.1123642 L100.777037,23.1123642 C100.384982,23.0992362 100.07389,22.7748818 100.07389,22.3792401 C100.07389,21.9835983 100.384982,21.659244 100.777037,21.6461159 L107.825557,21.6461159 C108.091,21.6372275 108.340139,21.7749836 108.47547,22.0054711 C108.610801,22.2359585 108.610801,22.5225216 108.47547,22.7530091 C108.340139,22.9834965 108.091,23.1212526 107.825557,23.1123642 Z" id="Shape"></path>
                <path d="M98.6921167,23.1123642 L95.4081472,23.1123642 C95.1427043,23.1212526 94.8935649,22.9834965 94.758234,22.7530091 C94.6229031,22.5225216 94.6229031,22.2359585 94.758234,22.0054711 C94.8935649,21.7749836 95.1427043,21.6372275 95.4081472,21.6461159 L98.6921167,21.6461159 C98.9575597,21.6372275 99.2066991,21.7749836 99.34203,22.0054711 C99.4773608,22.2359585 99.4773608,22.5225216 99.34203,22.7530091 C99.2066991,22.9834965 98.9575597,23.1212526 98.6921167,23.1123642 L98.6921167,23.1123642 Z" id="Shape"></path>
                <path d="M79.8116949,22.1453674 C79.4100298,22.1453674 79.0844158,21.8169557 79.0844158,21.4118393 C79.0844158,21.006723 79.4100298,20.6783113 79.8116949,20.6783113 C81.3110509,20.6781609 82.8049326,20.4958902 84.2610731,20.1354359 L84.3291554,20.118471 C84.7193192,20.0220997 85.1130682,20.2629832 85.2086185,20.6564993 C85.3041688,21.0500154 85.0653374,21.4471476 84.6751737,21.5435189 L84.6070914,21.5604838 C83.0376682,21.948715 81.4276329,22.1450874 79.8116949,22.1453674 L79.8116949,22.1453674 Z" id="Shape"></path>
                <path d="M84.5021646,24.9986947 L79.8116949,24.9986947 C79.4100298,24.9986947 79.0844158,24.670283 79.0844158,24.2651666 C79.0844158,23.8600502 79.4100298,23.5316385 79.8116949,23.5316385 L84.5021646,23.5316385 C84.9038297,23.5316385 85.2294437,23.8600502 85.2294437,24.2651666 C85.2294437,24.670283 84.9038297,24.9986947 84.5021646,24.9986947 Z" id="Shape"></path>
                <path d="M76.160882,26.7379963 L66.8079766,26.7379963 C66.4063115,26.7379963 66.0806975,26.4095846 66.0806975,26.0044683 C66.0806975,25.5993519 66.4063115,25.2709402 66.8079766,25.2709402 L76.160882,25.2709402 C76.5625472,25.2709402 76.8881611,25.5993519 76.8881611,26.0044683 C76.8881611,26.4095846 76.5625472,26.7379963 76.160882,26.7379963 L76.160882,26.7379963 Z" id="Shape"></path>
                <path d="M89.5554728,27.6322866 C89.4790033,27.6323953 89.4030124,27.6201213 89.3304007,27.5959334 L87.2887328,26.9246098 C86.9193931,26.8040434 86.6296763,26.5123139 86.5095341,26.1399981 C86.3893919,25.7676822 86.453368,25.3598502 86.681599,25.0431264 L88.2290695,22.8910132 L86.5101918,22.3198631 C86.1290965,22.1918142 85.9230776,21.7764168 86.0500356,21.392047 C86.1769936,21.0076773 86.5888522,20.7998881 86.9699475,20.927937 L89.0004018,21.6097627 C89.3673304,21.732717 89.6541313,22.0247798 89.7725008,22.3960275 C89.8908704,22.7672751 89.8266178,23.1732004 89.599526,23.4888225 L88.0536575,25.6385121 L89.7797439,26.2040073 C90.1204698,26.3150688 90.3303462,26.6597489 90.2744585,27.0164771 C90.2185709,27.3732054 89.9135502,27.6358257 89.5554728,27.6355183 L89.5554728,27.6322866 Z" id="Shape"></path>
                <path d="M60.507561,33.3550981 L47.5623134,33.3550981 C47.1606482,33.3550981 46.8350343,33.0266864 46.8350343,32.6215701 C46.8350343,32.2164537 47.1606482,31.888042 47.5623134,31.888042 L60.507561,31.888042 C60.9092261,31.888042 61.2348401,32.2164537 61.2348401,32.6215701 C61.2348401,33.0266864 60.9092261,33.3550981 60.507561,33.3550981 L60.507561,33.3550981 Z" id="Shape"></path>
                <path d="M56.127066,33.3550981 C55.7254009,33.3550981 55.3997869,33.0266864 55.3997869,32.6215701 L55.3997869,20.8778503 C55.3997869,20.4727339 55.7254009,20.1443222 56.127066,20.1443222 C56.5287312,20.1443222 56.8543452,20.4727339 56.8543452,20.8778503 L56.8543452,32.6215701 C56.8539037,33.0265019 56.5285482,33.3546529 56.127066,33.3550981 L56.127066,33.3550981 Z" id="Shape"></path>
                <path d="M82.1569298,33.3550981 C81.7554476,33.3546529 81.4300921,33.0265019 81.4296507,32.6215701 L81.4296507,21.4118393 C81.4296507,21.006723 81.7552646,20.6783113 82.1569298,20.6783113 C82.5585949,20.6783113 82.8842089,21.006723 82.8842089,21.4118393 L82.8842089,32.6215701 C82.8837674,33.0265019 82.5584119,33.3546529 82.1569298,33.3550981 Z" id="Shape"></path>
                <path d="M96.0897711,33.3550981 L95.4113511,33.3550981 C95.0096859,33.3550981 94.684072,33.0266864 94.684072,32.6215701 C94.684072,32.2164537 95.0096859,31.888042 95.4113511,31.888042 L96.0897711,31.888042 C96.4063198,31.887597 96.6628232,31.6288897 96.6632643,31.3096212 L96.6632643,20.8778503 C96.6544517,20.6101266 96.7910342,20.3588465 97.0195581,20.2223529 C97.248082,20.0858592 97.5322039,20.0858592 97.7607278,20.2223529 C97.9892517,20.3588465 98.1258343,20.6101266 98.1170216,20.8778503 L98.1170216,31.3096212 C98.1161389,32.4386226 97.2091541,33.3537619 96.0897711,33.3550981 Z" id="Shape"></path>
                <path d="M104.299695,25.9463031 C103.898213,25.9458578 103.572857,25.6177068 103.572416,25.212775 L103.572416,20.8778503 C103.572416,20.4727339 103.89803,20.1443222 104.299695,20.1443222 C104.70136,20.1443222 105.026974,20.4727339 105.026974,20.8778503 L105.026974,25.212775 C105.026974,25.4073187 104.95035,25.5938945 104.813959,25.7314577 C104.677568,25.8690209 104.492581,25.9463031 104.299695,25.9463031 Z" id="Shape"></path>
                <path d="M91.6612181,33.3550981 C91.2595529,33.3550981 90.933939,33.0266864 90.933939,32.6215701 L90.933939,20.830995 C90.9251263,20.5632713 91.0617089,20.3119912 91.2902328,20.1754975 C91.5187567,20.0390039 91.8028785,20.0390039 92.0314024,20.1754975 C92.2599263,20.3119912 92.3965089,20.5632713 92.3876962,20.830995 L92.3876962,32.6256093 C92.385495,33.0288324 92.061012,33.3546602 91.6612181,33.3550981 Z" id="Shape"></path>
                <path d="M79.8116949,31.413026 C79.4102128,31.4125808 79.0848573,31.0844298 79.0844158,30.6794979 L79.0844158,26.5933911 C79.0844158,26.1882748 79.4100298,25.8598631 79.8116949,25.8598631 C80.2133601,25.8598631 80.538974,26.1882748 80.538974,26.5933911 L80.538974,30.6794979 C80.538974,30.8740417 80.4623502,31.0606174 80.3259589,31.1981806 C80.1895676,31.3357438 80.0045814,31.413026 79.8116949,31.413026 Z" id="Shape"></path>
                <path d="M51.9428083,33.3550981 C51.5413261,33.3546529 51.2159706,33.0265019 51.2155292,32.6215701 L51.2155292,20.8778503 C51.2155292,20.6157859 51.3541478,20.3736285 51.5791687,20.2425963 C51.8041897,20.1115641 52.0814269,20.1115641 52.3064479,20.2425963 C52.5314688,20.3736285 52.6700874,20.6157859 52.6700874,20.8778503 L52.6700874,32.6215701 C52.669646,33.0265019 52.3442905,33.3546529 51.9428083,33.3550981 Z" id="Shape"></path>
                <path d="M48.4161454,29.6866504 C48.2233326,29.6866504 48.0384286,29.6093421 47.9021644,29.4717556 C47.7659003,29.3341691 47.6894547,29.1475913 47.6896669,28.9531219 L47.6896669,24.5454906 C47.7026835,24.1500668 48.0242747,23.8363022 48.4165459,23.8363022 C48.8088172,23.8363022 49.1304084,24.1500668 49.143425,24.5454906 L49.143425,28.9531219 C49.1436374,29.1477313 49.0670819,29.3344318 48.9306445,29.4720416 C48.794207,29.6096514 48.609097,29.6868646 48.4161454,29.6866504 Z" id="Shape"></path>
                <path d="M57.664124,29.4774167 L56.127066,29.4774167 C55.8616231,29.4863051 55.6124837,29.348549 55.4771528,29.1180615 C55.3418219,28.8875741 55.3418219,28.601011 55.4771528,28.3705236 C55.6124837,28.1400361 55.8616231,28.00228 56.127066,28.0111684 L57.664124,28.0111684 C58.3609214,28.0102783 58.9255672,27.4407808 58.9264498,26.7379963 L58.9264498,24.5454906 C58.939466,24.1500668 59.2610572,23.8363022 59.6533284,23.8363022 C60.0455997,23.8363022 60.3671909,24.1500668 60.3802071,24.5454906 L60.3802071,26.7379963 C60.3762459,28.2492785 59.1625314,29.4734215 57.664124,29.4774167 Z" id="Shape"></path>
                <path d="M78.048764,33.3550981 C77.6470988,33.3550981 77.3214849,33.0266864 77.3214849,32.6215701 C77.3214849,32.2164537 77.6470988,31.888042 78.048764,31.888042 C78.6205557,31.8875965 79.0839741,31.4201962 79.0844158,30.8434916 C79.0844158,30.4383752 79.4100298,30.1099635 79.8116949,30.1099635 C80.2133601,30.1099635 80.538974,30.4383752 80.538974,30.8434916 C80.5372089,32.2298755 79.4233372,33.3533179 78.048764,33.3550981 L78.048764,33.3550981 Z" id="Shape"></path>
                <path d="M64.5316251,33.3551021 C64.1299599,33.3551021 63.804346,33.0266864 63.804346,32.6215701 L63.804346,21.936942 C63.804346,21.7584767 63.6609037,21.6138019 63.4839587,21.6138019 L62.5868744,21.6138019 C62.1852092,21.6138019 61.8595953,21.2853902 61.8595953,20.8802738 C61.8595953,20.4751575 62.1852092,20.1467458 62.5868744,20.1467458 L63.4839587,20.1467458 C64.4651951,20.1476366 65.2604239,20.9496982 65.2613071,21.9393656 L65.2613071,32.6215701 C65.2613071,32.8165344 65.1843546,33.0034784 65.0474431,33.1411115 C64.9105317,33.2787445 64.7249275,33.3557423 64.5316251,33.3551021 Z" id="Shape"></path>
                <path d="M78.048764,33.3550981 L68.762339,33.3550981 C67.2817289,33.3533167 66.0820216,32.1429399 66.0806975,30.6496075 L66.0806975,29.9944409 C66.0806975,28.6113344 67.1923751,27.490105 68.5636989,27.490105 L74.4107665,27.490105 C75.7820903,27.490105 76.8937679,28.6113344 76.8937679,29.9944409 L76.8937679,30.6835372 C76.9025806,30.9512609 76.765998,31.2025409 76.5374741,31.3390346 C76.3089502,31.4755283 76.0248283,31.4755283 75.7963044,31.3390346 C75.5677805,31.2025409 75.431198,30.9512609 75.4400107,30.6835372 L75.4400107,29.9944409 C75.4406586,29.717653 75.3315989,29.452084 75.1370963,29.2568205 C74.9425938,29.0615571 74.6787827,28.9527967 74.4043588,28.9547376 L68.5572911,28.9547376 C67.9905498,28.9578523 67.5331222,29.4228231 67.5344548,29.9944409 L67.5344548,30.6536467 C67.5348966,31.3374306 68.0843804,31.8916356 68.762339,31.8920812 L78.048764,31.8920812 C78.4504291,31.8920813 78.776043,32.220493 78.776043,32.6256093 C78.776043,33.0307257 78.4504291,33.3591374 78.048764,33.3591374 L78.048764,33.3550981 Z" id="Shape"></path>
                <path d="M71.4840288,22.1187084 C71.0823637,22.1187084 70.7567497,21.7902966 70.7567497,21.3851803 L70.7567497,20.830995 C70.7567497,20.4258786 71.0823637,20.0974669 71.4840288,20.0974669 C71.885694,20.0974669 72.2113079,20.4258786 72.2113079,20.830995 L72.2113079,21.3851803 C72.2113079,21.579724 72.1346841,21.7662998 71.9982928,21.903863 C71.8619015,22.0414262 71.6769153,22.1187084 71.4840288,22.1187084 L71.4840288,22.1187084 Z" id="Shape"></path>
                <path d="M99.8254867,33.3551043 C99.4418864,33.3536167 99.1253808,33.0518923 99.102309,32.6656936 C99.0792371,32.279495 99.3575326,31.9416233 99.7381812,31.8936969 C102.503924,31.5519763 105.870394,28.7358101 106.878011,25.9463031 L100.773833,25.9463031 C100.372168,25.9463031 100.046554,25.6178914 100.046554,25.212775 C100.046554,24.8076586 100.372168,24.4792469 100.773833,24.4792469 L106.998157,24.4792469 C107.440584,24.4801716 107.855652,24.6953489 108.113905,25.0576677 C108.36893,25.41705 108.436895,25.8782551 108.296526,26.2969101 C107.171166,29.6406025 103.250427,32.9366317 99.9143942,33.3494432 C99.8849177,33.3533382 99.8552148,33.3552275 99.8254867,33.3551043 Z" id="Shape"></path>
                <path d="M108.774704,33.3551021 C108.744711,33.3552012 108.714743,33.3533121 108.684996,33.3494432 C105.815127,32.9947969 102.357347,30.4096759 100.807474,27.4650616 C100.663929,27.2323963 100.660938,26.9384326 100.799718,26.702845 C100.938498,26.4672574 101.195904,26.3293355 101.467144,26.3452282 C101.738385,26.361121 101.978224,26.5281778 102.089023,26.7783889 C103.414625,29.3013053 106.451896,31.596408 108.858806,31.8936969 C109.239454,31.9416233 109.51775,32.279495 109.494678,32.6656936 C109.471606,33.0518923 109.1551,33.3536167 108.7715,33.3551021 L108.774704,33.3551021 Z" id="Shape"></path>
                <path d="M95.4105501,27.9223049 C95.0524133,27.9214669 94.7481878,27.6577859 94.6934904,27.3008086 C94.638793,26.9438312 94.8499064,26.5998253 95.1910848,26.4899863 L98.5615589,25.4090826 C98.9444237,25.2863877 99.3534134,25.4999638 99.4750631,25.8861182 C99.5967128,26.2722726 99.3849562,26.6847765 99.0020914,26.8074715 L95.6300154,27.8875673 C95.5590586,27.910426 95.4850383,27.9221421 95.4105501,27.9223049 L95.4105501,27.9223049 Z" id="Shape"></path>
                <path d="M86.2066248,30.8111866 C85.2759182,30.8126949 84.4736042,30.1512614 84.289908,29.2310224 L83.7893029,26.7388042 C83.7096776,26.3417188 83.9642877,25.9547138 84.3579903,25.8744044 C84.7516929,25.794095 85.135401,26.0508927 85.2150262,26.4479781 L85.7148304,28.9401963 C85.743026,29.080422 85.8288853,29.201998 85.9510661,29.2747041 C86.073247,29.3474102 86.2202756,29.3644186 86.3556049,29.3215016 L93.175048,27.1354587 C93.5579127,27.0127638 93.9669024,27.2263399 94.0885521,27.6124943 C94.2102018,27.9986487 93.9984452,28.4111526 93.6155804,28.5338476 L86.7985403,30.7215062 C86.6068972,30.7815504 86.4073008,30.811788 86.2066248,30.8111866 L86.2066248,30.8111866 Z" id="Shape"></path>
                <path d="M48.9896609,1.71428571 L42.746114,16.4753263 L44.7245054,16.4753263 L46.6316106,11.8293793 L53.4086023,11.8293793 L55.3605618,16.4753263 L57.367788,16.4753263 L51.0962072,1.71428571 L48.9896609,1.71428571 Z M47.2691813,10.2774989 L47.2691813,10.2774989 L49.9804585,3.69351894 L52.6909348,10.2774989 L47.2691813,10.2774989 Z" id="Shape"></path>
                <path d="M62.645345,9.8563487 L60.8984335,9.8563487 C59.8371506,9.8563487 59.3037058,9.37163852 59.3037058,8.41756732 C59.3037058,7.38190324 60.1997222,6.86460977 61.991755,6.8656869 C63.2624217,6.85968318 64.5250284,7.06942233 65.7266696,7.48611593 L65.7266696,5.83083067 C64.5103333,5.48654947 63.252675,5.31337934 61.9893521,5.3161954 C59.0025418,5.3161954 57.5039303,6.35027841 57.5039303,8.41756732 C57.5039303,10.5470607 58.6308926,11.6158466 60.8976325,11.6158466 L62.6445441,11.6158466 C63.7707053,11.6158466 64.3369898,12.1005568 64.3369898,13.0562437 C64.3369898,14.0908307 63.477551,14.6075856 61.7586733,14.6065084 C60.4871909,14.6087716 59.2239152,14.4011012 58.0189529,13.9917344 L58.0189529,15.6389411 C59.2350992,15.9885413 60.4941069,16.1631457 61.7586733,16.157581 C64.7425467,16.157581 66.2342164,15.1238019 66.2336826,13.0562437 C66.2336826,10.9251346 65.0418418,9.8563487 62.6445441,9.8563487" id="Shape"></path>
                <polygon id="Rectangle-path" points="67.756323 5.31623003 69.6570204 5.31623003 69.6570204 16.1583889 67.756323 16.1583889"></polygon>
                <polygon id="Rectangle-path" points="67.756323 1.39573254 69.6570204 1.39573254 69.6570204 2.94034231 67.756323 2.94034231"></polygon>
                <path d="M75.4616368,5.31622984 C74.304619,5.32401084 73.1546086,5.49810339 72.0463085,5.83325422 L72.0463085,7.38190324 C73.1548093,7.04775449 74.304715,6.87394977 75.4616368,6.8656869 C77.3999798,6.8656869 78.3715542,7.44895482 78.3715542,8.63003195 L78.3715542,9.65357827 C77.4403831,9.50341911 76.4982973,9.43288524 75.5553501,9.44272935 C72.6360881,9.44272935 71.177258,10.5567549 71.1788587,12.784806 C71.1788587,15.0314377 72.5252875,16.157581 75.2317589,16.157581 C76.4332112,16.157581 77.468863,15.9152259 78.3715542,15.4717161 L78.3715542,16.157581 L80.2722516,16.157581 L80.2722516,8.78271565 C80.2722516,6.47118667 78.6687134,5.31569147 75.4616368,5.31622984 L75.4616368,5.31622984 Z M78.3715542,13.7566499 L78.3715542,13.7566499 C77.596217,14.3221451 76.5501525,14.6048927 75.2317589,14.6048927 C73.7972249,14.6048927 73.0747516,13.9901187 73.0747516,12.7468371 C73.0747516,11.5770698 73.9024187,10.9927248 75.557753,10.9938004 C76.6791084,10.9938004 77.6146392,11.0624692 78.3739571,11.1957645 L78.3715542,13.7566499 Z" id="Shape"></path>
                <polygon id="Rectangle-path" points="82.301905 1.39573254 84.1985976 1.39573254 84.1985976 16.1583889 82.301905 16.1583889"></polygon>
                <path d="M91.8005866,5.31623003 C90.481659,5.31623003 89.1672702,5.7767047 87.8574202,6.69765404 L87.863828,5.31623003 L86.2338578,5.31623003 L86.2338578,16.157581 L88.1369581,16.157581 L88.1369581,8.27861707 C89.1125374,7.36736194 90.1457863,6.90123231 91.235103,6.90123231 C92.8370394,6.90123231 93.6332017,7.71554541 93.6332017,9.3247832 L93.6332017,16.1591967 L95.5298944,16.1591967 L95.5298944,9.35063441 C95.5298944,6.66291648 94.2923986,5.31623003 91.8005866,5.31623003" id="Shape"></path>
                <path d="M99.4674539,4.19412597 C99.4674539,2.99769968 100.172306,2.40635326 101.58201,2.40635326 C102.513536,2.40635326 103.322514,2.54368781 104.000934,2.81835691 L104.000934,1.27536285 C103.232082,0.988741806 102.417666,0.846637202 101.598029,0.856088544 C98.9083781,0.856088544 97.5648875,2.16642173 97.5675534,4.78708809 L97.5675534,16.1802008 L99.4698568,16.1802008 L99.4698568,6.8656869 L102.706569,6.8656869 L102.706569,5.31623003 L99.4698568,5.31623003 L99.4674539,4.19412597 Z" id="Shape"></path>
                <path d="M108.54803,5.31623003 C105.119886,5.31623003 103.406882,7.12042903 103.409016,10.728827 C103.4213,14.3339936 105.134304,16.1381926 108.54803,16.141424 C111.971368,16.141424 113.683037,14.337225 113.683037,10.728827 C113.683037,7.12042903 111.971368,5.31623003 108.54803,5.31623003 M108.54803,14.6065086 L108.54803,14.6065086 C106.386484,14.6065086 105.305444,13.3039845 105.30491,10.6989366 C105.30491,8.14235965 106.38595,6.86460977 108.54803,6.86568622 C110.71011,6.86676403 111.789548,8.14451392 111.786352,10.6989366 C111.786352,13.304523 110.706906,14.607047 108.54803,14.6065086" id="Shape"></path>
                <path d="M30.5217155,23.7101734 C29.9818629,25.2370105 28.5489309,26.7598083 25.5677273,27.2647147 C22.7475184,27.7413464 19.8167758,28.0604473 11.4923136,27.4214377 C11.4923136,27.4214377 11.0613927,27.3560018 10.4222201,27.230785 C8.462251,26.9076449 4.12661028,25.881675 1.65642443,22.8683934 C1.52506565,22.7068234 1.4081243,22.5452533 1.29278488,22.3756047 C2.50143096,27.2687776 5.70303466,31.4194241 10.1083237,33.80431 C14.5136128,36.1891959 19.7127216,36.5864328 24.4239448,34.8980922 C27.5757545,33.30178 29.5637575,31.1197764 30.331886,28.4094386 C30.7892388,26.7888909 30.7572001,25.164304 30.5185116,23.7101734" id="Shape"></path>
                <path d="M33.8873837,9.10424007 C32.9090847,7.39435131 31.657093,5.8594533 30.182105,4.56169785 L30.182105,4.56977636 C27.0070671,2.55015062 23.9746016,1.91114103 21.170412,2.67455956 C19.6742035,3.07848471 18.403067,3.84594249 17.3618084,4.69822455 C18.9437205,4.40255135 20.9725729,4.89291648 22.8997023,7.25103149 C24.7187011,9.47261981 26.4584039,11.872743 30.0747752,19.465728 C30.0747752,19.465728 31.5461538,23.269895 31.5461538,25.3436467 C31.5461538,25.4325103 31.5637751,25.595696 31.5637751,25.595696 C31.5770707,26.6275754 31.4443758,27.6560929 31.1696987,28.650178 C30.7795398,30.0035579 30.1059814,31.2567387 29.1945112,32.325089 C36.3410362,26.8862159 38.3539254,16.9313164 33.8897866,9.10424007" id="Shape"></path>
                <path d="M18.1379465,3.06879051 C18.1435533,3.0639434 18.150762,3.05990415 18.1563688,3.0558649 C18.1916114,3.03647649 18.227655,3.01062529 18.2612956,2.99042903 C18.3237712,2.95488361 18.3846447,2.92499315 18.4463193,2.89025559 C19.2267906,2.43062765 20.0633887,2.07567794 20.9349274,1.83439525 C22.5368638,1.39654039 24.2060814,1.38765404 25.9185514,1.77946143 C23.5886339,0.698262235 21.055066,0.13616526 18.4903725,0.131446828 C9.1445098,0.144742605 1.40828752,7.46179896 0.795383646,16.8676814 L0.805796232,16.8676814 C0.789776868,17.0219808 0.792980741,17.1690096 0.785772027,17.3184619 C0.776961378,17.5220402 0.773757505,17.722387 0.7713546,17.9259653 L1.19586773,17.9259653 L0.769752664,17.9259653 L1.19586773,17.9259653 L0.769752664,17.9259653 L0.769752664,17.9259653 L0.769752664,17.9259653 L0.769752664,17.9300046 L0.769752664,17.9300046 C0.769752664,17.9712049 0.769752664,18.0107896 0.769752664,18.0495664 C0.819412691,19.665267 1.33443523,21.0935463 2.32282995,22.3004747 C3.68447585,23.9654541 5.73255147,24.9793063 7.54994825,25.5924646 C6.55434481,24.3516066 6.01289033,22.3659105 7.04694024,19.5764035 C8.04414562,16.8773756 9.23278239,14.1573437 13.9504849,7.20013692 C13.9504849,7.20013692 16.363802,4.16261981 18.1411504,3.0558649 L18.1379465,3.06879051 Z" id="Shape"></path>
            </g>
        </g>
        <g id="横版logo" fill-rule="nonzero">
            <g id="编组" transform="translate(42.717241, 0.795185)">
                <g transform="translate(4.124138, 19.084444)" id="路径">
                    <path d="M13.3558621,1.5188037 L1.1737931,1.5188037 C0.769310345,1.5188037 0.444137931,1.19277778 0.444137931,0.787233333 C0.444137931,0.381688889 0.769310345,0.055662963 1.1737931,0.055662963 L13.3637931,0.055662963 C13.7682759,0.055662963 14.0934483,0.381688889 14.0934483,0.787233333 C14.0855172,1.19277778 13.7603448,1.5188037 13.3558621,1.5188037 Z" fill="#0058A7"></path>
                    <path d="M29.3606897,2.21061481 L20.017931,2.21061481 C19.6134483,2.21061481 19.2882759,1.88458889 19.2882759,1.47904444 C19.2882759,1.0735 19.6134483,0.747474074 20.017931,0.747474074 L29.3606897,0.747474074 C29.7651724,0.747474074 30.0903448,1.0735 30.0903448,1.47904444 C30.0824138,1.88458889 29.7572414,2.21061481 29.3606897,2.21061481 Z" fill="#0058A7"></path>
                    <path d="M29.3606897,4.40532593 L20.017931,4.40532593 C19.6134483,4.40532593 19.2882759,4.0793 19.2882759,3.67375556 C19.2882759,3.26821111 19.6134483,2.94218519 20.017931,2.94218519 L29.3606897,2.94218519 C29.7651724,2.94218519 30.0903448,3.26821111 30.0903448,3.67375556 C30.0824138,4.0793 29.7572414,4.40532593 29.3606897,4.40532593 Z" fill="#0058A7"></path>
                    <path d="M60.9737931,3.01375185 L53.9310345,3.01375185 C53.5265517,3.01375185 53.2013793,2.68772593 53.2013793,2.28218148 C53.2013793,1.87663704 53.5265517,1.55061111 53.9310345,1.55061111 L60.9737931,1.55061111 C61.3782759,1.55061111 61.7034483,1.87663704 61.7034483,2.28218148 C61.7034483,2.68772593 61.3782759,3.01375185 60.9737931,3.01375185 Z" fill="#0058A7"></path>
                    <path d="M51.8610345,3.01375185 L48.5855172,3.01375185 C48.1810345,3.01375185 47.8558621,2.68772593 47.8558621,2.28218148 C47.8558621,1.87663704 48.1810345,1.55061111 48.5855172,1.55061111 L51.8610345,1.55061111 C52.2655172,1.55061111 52.5906897,1.87663704 52.5906897,2.28218148 C52.5827586,2.68772593 52.2575862,3.01375185 51.8610345,3.01375185 Z" fill="#0058A7"></path>
                    <path d="M33.0010345,2.05157778 C32.5965517,2.05157778 32.2713793,1.72555185 32.2713793,1.32000741 C32.2713793,0.914462963 32.5965517,0.588437037 33.0010345,0.588437037 C34.5,0.588437037 35.9910345,0.405544444 37.4424138,0.0477111111 L37.5137931,0.0318074074 C37.9024138,-0.0636148148 38.2989655,0.174940741 38.3941379,0.564581481 C38.4893103,0.954222222 38.2513793,1.35181481 37.8627586,1.44723704 L37.7913793,1.46314074 C36.2289655,1.85278148 34.6189655,2.05157778 33.0010345,2.05157778 Z" fill="#0058A7"></path>
                    <path d="M37.6882759,4.88243704 L33.0010345,4.88243704 C32.5965517,4.88243704 32.2713793,4.55641111 32.2713793,4.15086667 C32.2713793,3.74532222 32.5965517,3.4192963 33.0010345,3.4192963 L37.6882759,3.4192963 C38.0927586,3.4192963 38.417931,3.74532222 38.417931,4.15086667 C38.417931,4.55641111 38.0927586,4.88243704 37.6882759,4.88243704 Z" fill="#0058A7"></path>
                    <path d="M29.3606897,6.60798889 L20.017931,6.60798889 C19.6134483,6.60798889 19.2882759,6.28196296 19.2882759,5.87641852 C19.2882759,5.47087407 19.6134483,5.14484815 20.017931,5.14484815 L29.3606897,5.14484815 C29.7651724,5.14484815 30.0903448,5.47087407 30.0903448,5.87641852 C30.0824138,6.28196296 29.7572414,6.60798889 29.3606897,6.60798889 Z" fill="#0058A7"></path>
                    <path d="M42.7324138,7.4985963 C42.6610345,7.4985963 42.5817241,7.49064444 42.5103448,7.46678889 L40.472069,6.80678519 C40.1072414,6.68750741 39.8137931,6.39328889 39.6948276,6.0275037 C39.5758621,5.66171852 39.6393103,5.24822222 39.8693103,4.9381 L41.4158621,2.79905185 L39.7027586,2.22651852 C39.322069,2.09928889 39.1158621,1.68579259 39.2427586,1.3041037 C39.3696552,0.922414815 39.782069,0.715666667 40.1627586,0.842896296 L42.1931034,1.5188037 C42.557931,1.63808148 42.8434483,1.9323 42.9624138,2.29808519 C43.0813793,2.66387037 43.017931,3.06941481 42.787931,3.37953704 L41.2413793,5.51063333 L42.9624138,6.07521481 C43.3431034,6.20244444 43.5493103,6.60798889 43.4303448,6.98967778 C43.3272414,7.2998 43.0417241,7.4985963 42.7324138,7.4985963 Z" fill="#EE780C"></path>
                    <path d="M13.7286207,13.1762185 L0.801034483,13.1762185 C0.396551724,13.1762185 0.0713793103,12.8501926 0.0713793103,12.4446481 C0.0713793103,12.0391037 0.396551724,11.7130778 0.801034483,11.7130778 L13.7286207,11.7130778 C14.1331034,11.7130778 14.4582759,12.0391037 14.4582759,12.4446481 C14.4582759,12.8501926 14.1331034,13.1762185 13.7286207,13.1762185 Z" fill="#0058A7"></path>
                    <path d="M9.35068966,13.1762185 C8.9462069,13.1762185 8.62103448,12.8501926 8.62103448,12.4446481 L8.62103448,0.795185185 C8.62103448,0.389640741 8.9462069,0.0636148148 9.35068966,0.0636148148 C9.75517241,0.0636148148 10.0803448,0.389640741 10.0803448,0.795185185 L10.0803448,12.4526 C10.0803448,12.8501926 9.75517241,13.1762185 9.35068966,13.1762185 Z" fill="#0058A7"></path>
                    <path d="M35.3486207,13.1762185 C34.9441379,13.1762185 34.6189655,12.8501926 34.6189655,12.4446481 L34.6189655,1.32000741 C34.6189655,0.914462963 34.9441379,0.588437037 35.3486207,0.588437037 C35.7531034,0.588437037 36.0782759,0.914462963 36.0782759,1.32000741 L36.0782759,12.4446481 C36.0703448,12.8501926 35.7451724,13.1762185 35.3486207,13.1762185 Z" fill="#0058A7"></path>
                    <path d="M49.2596552,13.1762185 L48.5855172,13.1762185 C48.1810345,13.1762185 47.8558621,12.8501926 47.8558621,12.4446481 C47.8558621,12.0391037 48.1810345,11.7130778 48.5855172,11.7130778 L49.2596552,11.7130778 C49.5768966,11.7130778 49.8306897,11.4586185 49.8306897,11.1405444 L49.8306897,0.795185185 C49.8306897,0.389640741 50.1558621,0.0636148148 50.5603448,0.0636148148 C50.9648276,0.0636148148 51.29,0.389640741 51.29,0.795185185 L51.29,11.1484963 C51.282069,12.2697074 50.377931,13.1762185 49.2596552,13.1762185 Z" fill="#0058A7"></path>
                    <path d="M57.4603448,5.82075556 C57.0558621,5.82075556 56.7306897,5.49472963 56.7306897,5.08918519 L56.7306897,0.795185185 C56.7306897,0.389640741 57.0558621,0.0636148148 57.4603448,0.0636148148 C57.8648276,0.0636148148 58.19,0.389640741 58.19,0.795185185 L58.19,5.09713704 C58.182069,5.49472963 57.8568966,5.82075556 57.4603448,5.82075556 Z" fill="#0058A7"></path>
                    <path d="M44.8341379,13.1762185 C44.4296552,13.1762185 44.1044828,12.8501926 44.1044828,12.4446481 L44.1044828,0.747474074 C44.1044828,0.34192963 44.4296552,0.0159037037 44.8341379,0.0159037037 C45.2386207,0.0159037037 45.5637931,0.34192963 45.5637931,0.747474074 L45.5637931,12.4526 C45.5637931,12.8501926 45.2386207,13.1762185 44.8341379,13.1762185 Z" fill="#0058A7"></path>
                    <path d="M33.0010345,11.2518704 C32.5965517,11.2518704 32.2713793,10.9258444 32.2713793,10.5203 L32.2713793,6.46485556 C32.2713793,6.05931111 32.5965517,5.73328519 33.0010345,5.73328519 C33.4055172,5.73328519 33.7306897,6.05931111 33.7306897,6.46485556 L33.7306897,10.5203 C33.7306897,10.9258444 33.4055172,11.2518704 33.0010345,11.2518704 Z" fill="#0058A7"></path>
                    <path d="M5.17896552,13.1762185 C4.77448276,13.1762185 4.44931034,12.8501926 4.44931034,12.4446481 L4.44931034,0.795185185 C4.44931034,0.389640741 4.77448276,0.0636148148 5.17896552,0.0636148148 C5.58344828,0.0636148148 5.90862069,0.389640741 5.90862069,0.795185185 L5.90862069,12.4526 C5.90068966,12.8501926 5.57551724,13.1762185 5.17896552,13.1762185 Z" fill="#0058A7"></path>
                    <path d="M1.65758621,9.53427037 C1.25310345,9.53427037 0.927931034,9.20824444 0.927931034,8.8027 L0.927931034,4.42918148 C0.927931034,4.02363704 1.25310345,3.69761111 1.65758621,3.69761111 C2.06206897,3.69761111 2.38724138,4.02363704 2.38724138,4.42918148 L2.38724138,8.8027 C2.37931034,9.20824444 2.05413793,9.53427037 1.65758621,9.53427037 Z" fill="#0058A7"></path>
                    <path d="M10.8893103,9.32752222 L9.35068966,9.32752222 C8.9462069,9.32752222 8.62103448,9.0014963 8.62103448,8.59595185 C8.62103448,8.19040741 8.9462069,7.86438148 9.35068966,7.86438148 L10.8893103,7.86438148 C11.5872414,7.86438148 12.1503448,7.2998 12.1503448,6.60003704 L12.1503448,4.42122963 C12.1503448,4.01568519 12.4755172,3.68965926 12.88,3.68965926 C13.2844828,3.68965926 13.6096552,4.01568519 13.6096552,4.42122963 L13.6096552,6.60003704 C13.6017241,8.11088889 12.3882759,9.32752222 10.8893103,9.32752222 Z" fill="#0058A7"></path>
                    <path d="M31.2403448,13.1762185 C30.8358621,13.1762185 30.5106897,12.8501926 30.5106897,12.4446481 C30.5106897,12.0391037 30.8358621,11.7130778 31.2403448,11.7130778 C31.8113793,11.7130778 32.2713793,11.2518704 32.2713793,10.679337 C32.2713793,10.2737926 32.5965517,9.94776667 33.0010345,9.94776667 C33.4055172,9.94776667 33.7306897,10.2737926 33.7306897,10.679337 C33.7306897,12.0550074 32.6124138,13.1762185 31.2403448,13.1762185 Z" fill="#0058A7"></path>
                    <path d="M17.7496552,13.1762185 C17.3451724,13.1762185 17.02,12.8501926 17.02,12.4446481 L17.02,1.84482963 C17.02,1.66988889 16.8772414,1.5188037 16.6948276,1.5188037 L15.7986207,1.5188037 C15.3941379,1.5188037 15.0689655,1.19277778 15.0689655,0.787233333 C15.0689655,0.381688889 15.3941379,0.055662963 15.7986207,0.055662963 L16.6948276,0.055662963 C17.6703448,0.055662963 18.4713793,0.850848148 18.4713793,1.83687778 L18.4713793,12.4446481 C18.4713793,12.8501926 18.1462069,13.1762185 17.7496552,13.1762185 Z" fill="#0058A7"></path>
                    <path d="M31.2403448,13.1762185 L21.9689655,13.1762185 C20.4937931,13.1762185 19.2882759,11.9754889 19.2882759,10.4884926 L19.2882759,9.83644074 C19.2882759,8.46872222 20.3986207,7.35546296 21.7627586,7.35546296 L27.6,7.35546296 C28.9641379,7.35546296 30.0744828,8.46872222 30.0744828,9.83644074 L30.0744828,10.5203 C30.0744828,10.9258444 29.7493103,11.2518704 29.3448276,11.2518704 C28.9403448,11.2518704 28.6151724,10.9258444 28.6151724,10.5203 L28.6151724,9.83644074 C28.6151724,9.27185926 28.1551724,8.81065185 27.592069,8.81065185 L21.7548276,8.81065185 C21.1917241,8.81065185 20.7317241,9.27185926 20.7317241,9.83644074 L20.7317241,10.4884926 C20.7317241,11.1644 21.2789655,11.7210296 21.9610345,11.7210296 L31.2324138,11.7210296 C31.6368966,11.7210296 31.962069,12.0470556 31.962069,12.4526 C31.97,12.8501926 31.6448276,13.1762185 31.2403448,13.1762185 Z" fill="#0058A7"></path>
                    <path d="M24.6893103,2.02772222 C24.2848276,2.02772222 23.9596552,1.7016963 23.9596552,1.29615185 L23.9596552,0.747474074 C23.9596552,0.34192963 24.2848276,0.0159037037 24.6893103,0.0159037037 C25.0937931,0.0159037037 25.4189655,0.34192963 25.4189655,0.747474074 L25.4189655,1.29615185 C25.4110345,1.7016963 25.0937931,2.02772222 24.6893103,2.02772222 Z" fill="#0058A7"></path>
                    <path d="M52.9872414,13.1762185 C52.6224138,13.1762185 52.3131034,12.9058556 52.2655172,12.5400704 C52.217931,12.1424778 52.5034483,11.7766926 52.9,11.7289815 C55.66,11.3870519 59.0227586,8.59595185 60.03,5.82870741 L53.9389655,5.82870741 C53.5344828,5.82870741 53.2093103,5.50268148 53.2093103,5.09713704 C53.2093103,4.69159259 53.5344828,4.36556667 53.9389655,4.36556667 L60.1568966,4.36556667 C60.6010345,4.36556667 61.0134483,4.58026667 61.2672414,4.9381 C61.5210345,5.29593333 61.5924138,5.75714074 61.4496552,6.17063704 C60.3234483,9.48655926 56.4134483,12.7627222 53.0824138,13.1682667 C53.0506897,13.1762185 53.0189655,13.1762185 52.9872414,13.1762185 Z" fill="#0058A7"></path>
                    <path d="M61.9255172,13.1762185 C61.8937931,13.1762185 61.87,13.1762185 61.8382759,13.1682667 C58.9751724,12.8183852 55.5172414,10.249937 53.9706897,7.32365556 C53.7803448,6.96582222 53.9151724,6.52847037 54.272069,6.33762593 C54.6289655,6.14678148 55.0651724,6.28196296 55.2555172,6.6397963 C56.58,9.14462963 59.6096552,11.4188593 62.0127586,11.7210296 C62.4093103,11.7687407 62.6948276,12.1345259 62.6472414,12.5321185 C62.5996552,12.9058556 62.2824138,13.1762185 61.9255172,13.1762185 Z" fill="#0058A7"></path>
                    <path d="M48.5775862,7.78486296 C48.2682759,7.78486296 47.9827586,7.58606667 47.8875862,7.27594444 C47.7686207,6.89425556 47.9748276,6.48075926 48.3634483,6.36148148 L51.7262069,5.28798148 C52.1068966,5.1687037 52.5193103,5.37545185 52.6382759,5.76509259 C52.7572414,6.14678148 52.5510345,6.56027778 52.1624138,6.67955556 L48.7996552,7.75305556 C48.7282759,7.77691111 48.6568966,7.78486296 48.5775862,7.78486296 Z" fill="#0058A7"></path>
                    <path d="M39.3934483,10.6554815 C39.0524138,10.6554815 38.7034483,10.5680111 38.402069,10.3851185 C37.9262069,10.1068037 37.5851724,9.62969259 37.482069,9.08896667 L36.9824138,6.61594074 C36.9031034,6.21834815 37.1568966,5.83665926 37.5534483,5.75714074 C37.95,5.67762222 38.3306897,5.93208148 38.41,6.32967407 L38.9096552,8.8027 C38.9493103,8.99354444 39.0762069,9.08896667 39.1475862,9.13667778 C39.2189655,9.17643704 39.3696552,9.24005185 39.552069,9.18438889 L46.3648276,7.01353333 C46.7455172,6.89425556 47.157931,7.1010037 47.2768966,7.49064444 C47.3958621,7.87233333 47.1896552,8.28582963 46.8010345,8.40510741 L39.9962069,10.575963 C39.79,10.6236741 39.5917241,10.6554815 39.3934483,10.6554815 Z" fill="#0058A7"></path>
                </g>
                <g fill="#0058A7">
                    <path d="M6.25758621,1.03283004 L0.0237931034,15.6801411 L1.99862069,15.6801411 L3.90206897,11.0680671 L10.6672414,11.0680671 L12.6182759,15.6801411 L14.6248276,15.6801411 L8.35931034,1.02487819 L6.25758621,1.02487819 L6.25758621,1.03283004 Z M4.53655172,9.53335967 L7.24103448,2.99693745 L9.94551724,9.53335967 L4.53655172,9.53335967 Z" id="形状"></path>
                    <path d="M18.2413793,9.42998559 C17.1786207,9.42998559 16.6472414,8.95287448 16.6472414,7.99865226 C16.6472414,6.97286337 17.5434483,6.455993 19.327931,6.455993 C20.6206897,6.455993 21.8658621,6.6547893 23.0555172,7.06828559 L23.0555172,5.42225226 C21.857931,5.08032263 20.6127586,4.91333374 19.327931,4.91333374 C16.3458621,4.91333374 14.8468966,5.93912263 14.8468966,7.99070041 C14.8468966,10.105893 15.9731034,11.1634893 18.2334483,11.1634893 L19.9782759,11.1634893 C21.1044828,11.1634893 21.6675862,11.6406004 21.6675862,12.5948226 C21.6675862,13.6206115 20.8110345,14.1374819 19.09,14.1374819 C17.7972414,14.1374819 16.552069,13.9307337 15.3544828,13.5251893 L15.3544828,15.1632708 C16.552069,15.5052004 17.7972414,15.6801411 19.09,15.6801411 C22.072069,15.6801411 23.5551724,14.6543523 23.5551724,12.6027745 C23.5710345,10.4875819 22.3813793,9.42998559 19.9862069,9.42998559 L18.2413793,9.42998559 Z" id="路径"></path>
                    <polygon id="矩形" points="25.0937931 4.92128559 26.9893103 4.92128559 26.9893103 15.6801411 25.0937931 15.6801411"></polygon>
                    <rect id="矩形" x="25.0937931" y="1.03283004" width="1.89551724" height="1.53470741"></rect>
                    <path d="M29.3765517,5.43815596 L29.3765517,6.97286337 C30.5424138,6.63093374 31.6765517,6.46394485 32.7868966,6.46394485 C34.722069,6.46394485 35.6896552,7.04443004 35.6896552,8.21335226 L35.6896552,9.2311893 C34.8886207,9.09600782 33.9527586,9.02444115 32.8741379,9.02444115 C29.9555172,9.02444115 28.5041379,10.1297486 28.5041379,12.3403634 C28.5041379,14.5668819 29.8524138,15.688093 32.5489655,15.688093 C33.7465517,15.688093 34.7855172,15.4495374 35.6817241,15.0042337 L35.6817241,15.688093 L36.9982759,15.688093 L37.5773286,15.688093 L37.5773286,8.36443745 C37.5851724,6.06635226 35.9831034,4.92128559 32.7868966,4.92128559 C31.6765517,4.92128559 30.5424138,5.09622634 29.3765517,5.43815596 Z M35.6896552,13.3025374 C34.9124138,13.8671189 33.8734483,14.1454337 32.5568966,14.1454337 C31.1213793,14.1454337 30.3996552,13.5331411 30.3996552,12.3006041 C30.3996552,11.1396337 31.2244828,10.5591486 32.8741379,10.5591486 C33.9924138,10.5591486 34.9282759,10.6307152 35.6896552,10.7579449 L35.6896552,13.3025374 Z" id="形状"></path>
                    <rect id="矩形" x="39.6155172" y="1.03283004" width="1.89551724" height="14.655263"></rect>
                    <path d="M45.1672414,6.29695596 L45.1751724,4.92128559 L43.5413793,4.92128559 L43.5413793,15.6801411 L45.4368966,15.6801411 L45.4368966,7.85551893 C46.4124138,6.94900782 47.4434483,6.48780041 48.53,6.48780041 C50.1241379,6.48780041 50.9251724,7.2988893 50.9251724,8.88925967 L50.9251724,15.6801411 L52.8206897,15.6801411 L52.8206897,8.92106708 C52.8206897,6.25719671 51.5913793,4.92128559 49.1010345,4.92128559 C47.7844828,4.92128559 46.467931,5.382493 45.1672414,6.29695596 Z" id="路径"></path>
                    <path d="M58.8641379,2.03476337 C59.792069,2.03476337 60.6010345,2.16994485 61.2751724,2.44825967 L61.2751724,0.913552261 C60.5534483,0.635237446 59.7524138,0.500055965 58.872069,0.500055965 C56.1834483,0.500055965 54.8510345,1.80415967 54.8510345,4.40441522 L54.8510345,15.7119486 L56.7465517,15.7119486 L56.7465517,6.46394485 L59.9824138,6.46394485 L59.9824138,4.92923745 L56.7465517,4.92923745 L56.7465517,3.80802634 C56.7544828,2.62320041 57.4603448,2.03476337 58.8641379,2.03476337 Z" id="路径"></path>
                    <path d="M60.6882759,10.2967374 C60.6962069,13.8750708 62.4172414,15.6642374 65.8196552,15.6642374 C69.237931,15.6642374 70.9431034,13.8750708 70.9431034,10.2967374 C70.9510345,6.71045226 69.237931,4.92128559 65.8196552,4.92128559 C62.3934483,4.92128559 60.6882759,6.71045226 60.6882759,10.2967374 Z M62.5837931,10.26493 C62.5837931,7.7282893 63.6624138,6.46394485 65.8196552,6.46394485 C67.9768966,6.46394485 69.0555172,7.7282893 69.0555172,10.26493 C69.0555172,12.8492819 67.9768966,14.1454337 65.8196552,14.1454337 C63.6624138,14.1454337 62.5837931,12.8492819 62.5837931,10.26493 Z" id="形状"></path>
                </g>
            </g>
            <g id="编组">
                <path d="M3.14113197,26.7977407 C5.25078715,30.4555926 8.46285611,33.0876556 12.1032009,34.5030852 C12.111132,34.4633259 11.8097527,27.2907556 9.96975266,26.9488259 C8.10595956,26.6068963 5.29837335,24.1736296 7.05906301,19.4343259 C8.05837335,16.7466 9.24802853,14.0350185 13.9749251,7.10895556 C13.9749251,7.10895556 16.5049251,3.93616667 18.2973389,2.90242593 C21.786994,0.882655556 25.2687182,1.18482593 27.4735458,2.46507407 C24.761132,0.882655556 21.6600975,0.0553677541 18.5273389,0.0553677541 C15.5135458,0.0477111111 12.4521665,0.819040741 9.65251128,2.44121852 C1.15044232,7.36341481 -1.76817837,18.2733556 3.14113197,26.7977407 Z" id="路径" fill="url(#linearGradient-1)"></path>
                <path d="M25.6256147,27.0760556 C22.8021665,27.5531667 19.8676837,27.8712407 11.5242354,27.2350926 C11.5242354,27.2350926 7.51906301,26.6228 5.73458025,25.5890593 C2.25285611,23.5692889 0.769522897,20.4124037 0.769522897,17.8519074 C0.76182163,24.0145926 3.95009749,30.0182407 9.66837335,33.3262111 C18.1545803,38.2484074 29.0359596,35.3300778 33.9452699,26.7977407 C36.0549251,23.1398889 36.7132009,19.0367333 36.1183734,15.1641815 C36.0866492,15.1721333 30.0352699,19.0287815 30.6618216,20.7940926 C31.2883734,22.5832593 30.5983734,26.2411111 25.6256147,27.0760556 Z" id="形状" fill="url(#linearGradient-2)"></path>
                <path d="M15.0961196,5.82180185 C15.0660662,5.85193519 15.0360129,5.88206852 15.0159773,5.91220185 C15.0460307,5.88206852 15.0660662,5.85193519 15.0961196,5.82180185 Z M15.0773389,5.82075556 C16.3700975,4.42122963 19.7963044,3.30797037 22.9449251,7.14076296 C24.769063,9.35137778 26.5138906,11.7448852 30.1304423,19.3070963 C30.1304423,19.3070963 31.6056147,23.0921778 31.6056147,25.1596593 C31.6056147,29.1992 29.606994,32.0698185 27.3942354,33.3500667 C32.7318216,30.2727 36.3245803,24.4996556 36.3245803,17.8837148 C36.3245803,14.6393593 35.4600975,11.6097037 33.9532009,8.98559259 C32.3907871,6.25810741 30.1225113,3.99182963 27.4021665,2.42531481 C26.3314768,1.82097407 24.9673389,1.43928519 23.4604423,1.43928519 C21.8583734,1.43928519 20.0818216,1.86868519 18.2973389,2.89447407 C17.2583734,3.49881481 15.9735458,4.81882222 15.0773389,5.82075556 Z" id="形状" fill="url(#linearGradient-3)"></path>
            </g>
        </g>
    </g>
</svg>